<?xml version="1.0" standalone="no"?>
<!DOCTYPE svg PUBLIC "-//W3C//DTD SVG 20010904//EN"
 "http://www.w3.org/TR/2001/REC-SVG-20010904/DTD/svg10.dtd">
<svg version="1.0" xmlns="http://www.w3.org/2000/svg"
 width="348.000000pt" height="348.000000pt" viewBox="0 0 348.000000 348.000000"
 preserveAspectRatio="xMidYMid meet">

<g transform="translate(0.000000,348.000000) scale(0.100000,-0.100000)"
fill="#000000" stroke="none">
<path d="M1665 3469 c-45 -12 -115 -77 -136 -123 -17 -38 -19 -80 -19 -676 0
-596 2 -637 19 -675 67 -146 253 -182 370 -72 74 70 71 38 71 746 0 623 0 635
-21 678 -50 103 -171 155 -284 122z"/>
<path d="M765 2891 c-57 -15 -97 -43 -179 -125 -244 -246 -408 -577 -455 -919
-14 -101 -14 -343 0 -444 75 -540 418 -1008 911 -1243 975 -465 2117 132 2300
1203 27 159 21 437 -11 589 -59 273 -186 527 -375 747 -145 170 -228 215 -346
190 -44 -9 -63 -21 -105 -63 -65 -65 -85 -128 -65 -213 10 -47 22 -65 101
-149 143 -153 222 -274 284 -439 156 -412 52 -895 -260 -1210 -178 -181 -411
-300 -653 -335 -132 -20 -345 -8 -467 24 -197 53 -377 158 -525 306 -350 350
-437 875 -220 1321 56 116 118 203 228 321 85 91 101 114 112 158 32 135 -61
267 -200 283 -25 3 -58 2 -75 -2z"/>
</g>
</svg>
