<?xml version="1.0" standalone="no"?>
<!DOCTYPE svg PUBLIC "-//W3C//DTD SVG 20010904//EN"
 "http://www.w3.org/TR/2001/REC-SVG-20010904/DTD/svg10.dtd">
<svg version="1.0" xmlns="http://www.w3.org/2000/svg"
 width="512.000000pt" height="512.000000pt" viewBox="0 0 512.000000 512.000000"
 preserveAspectRatio="xMidYMid meet">

<g transform="translate(0.000000,512.000000) scale(0.100000,-0.100000)"
fill="#000000" stroke="none">
<path d="M2490 4858 c-33 -17 -51 -35 -67 -68 -21 -41 -23 -57 -23 -230 0
-173 2 -189 23 -230 24 -48 88 -90 137 -90 49 0 113 42 138 90 22 43 23 53 20
240 -3 174 -5 199 -23 228 -43 72 -131 98 -205 60z"/>
<path d="M4105 4225 c-60 -22 -309 -275 -324 -330 -16 -61 0 -113 48 -157 40
-38 61 -44 126 -39 49 5 74 24 212 163 106 108 133 141 142 176 22 82 -26 169
-107 192 -46 12 -48 12 -97 -5z"/>
<path d="M861 4195 c-36 -33 -65 -99 -56 -129 2 -6 6 -24 10 -41 7 -31 205
-242 279 -296 100 -74 246 -4 246 118 0 67 -15 91 -133 211 -154 157 -175 172
-248 172 -53 0 -63 -3 -98 -35z"/>
<path d="M2415 4071 c-445 -52 -817 -279 -1057 -644 -217 -331 -288 -748 -192
-1127 48 -191 134 -372 249 -525 69 -91 232 -248 317 -305 l67 -45 1 -275 c0
-321 8 -371 74 -505 95 -191 258 -325 466 -381 102 -28 350 -26 453 4 258 74
451 274 512 534 11 48 15 130 15 340 l0 277 88 65 c168 124 343 328 431 503
121 242 174 513 151 767 -12 133 -44 283 -83 387 -177 471 -584 814 -1078 910
-113 22 -313 31 -414 20z m352 -326 c220 -42 409 -141 576 -304 208 -202 322
-455 334 -742 17 -383 -144 -728 -446 -954 l-86 -65 -584 0 -583 0 -64 45
c-243 174 -409 437 -460 728 -24 135 -15 339 21 472 64 241 215 465 414 616
124 93 305 173 461 204 92 18 320 18 417 0z m243 -2465 l0 -80 -450 0 -450 0
0 80 0 80 450 0 450 0 0 -80z m-15 -422 c-32 -112 -117 -211 -223 -261 -66
-31 -70 -32 -212 -32 -142 0 -146 1 -212 32 -106 50 -191 149 -223 261 l-6 22
441 0 441 0 -6 -22z"/>
<path d="M410 2618 c-48 -25 -90 -89 -90 -138 0 -49 42 -113 90 -137 41 -21
57 -23 230 -23 173 0 189 2 230 23 108 54 114 205 10 270 -32 20 -50 22 -230
25 -187 3 -197 2 -240 -20z"/>
<path d="M4250 2618 c-48 -25 -90 -89 -90 -138 0 -49 42 -113 90 -137 41 -21
57 -23 230 -23 173 0 189 2 230 23 108 54 114 205 10 270 -32 20 -50 22 -230
25 -187 3 -197 2 -240 -20z"/>
</g>
</svg>
